#!OML:ASF H:\IndianDance\Patient Classification 1\Patient 1\Session 1\dancer.ASF
:FULLY-SPECIFIED
:DEGREES
1591
root 20.9817 14.3889 7.80215 -170.417 6.10731 -179.578
lowerback 10.8464 -1.34607 -7.70721
upperback -5.76456 -2.9853 -7.38258
thorax -12.5082 -0.787018 -3.27346
lowerneck -15.3072 2.47104 6.90713
upperneck 24.0713 2.9509 -1.35501
head 10.357 2.18189 -1.18304
rclavicle -1.2424e-014 -1.17681e-013
rhumerus 7.98062 18.862 -1.03425
rradius 105.829
rwrist -28.5568
rhand -41.1425 12.3669
rfingers 7.12502
rthumb -14.0689 342.863
lclavicle -1.2424e-014 -1.17681e-013
lhumerus 44.0871 -54.8406 19.3335
lradius 83.1246
lwrist 13.2708
lhand -16.5 8.70749
lfingers 7.12502
lthumb 9.71773 -321.537
rfemur -403.483 -15.035 390.9
rtibia 60.6089
rfoot -24.3418 -1.31208
rtoes 14.1061
lfemur -32.2883 31.7333 0.842657
ltibia 60.616
lfoot -8.01102 -10.4264
ltoes -25.1659
1592
root 20.9771 14.3842 7.81859 -170.349 5.98121 -179.384
lowerback 11.102 -1.15007 -7.37268
upperback -5.6428 -2.72656 -7.13486
thorax -12.5209 -0.707714 -3.22519
lowerneck -15.3366 2.49884 6.77426
upperneck 24.3116 3.11044 -1.55317
head 10.4566 2.23344 -1.20708
rclavicle 2.34566e-014 -7.63333e-014
rhumerus 7.3473 21.2434 -1.82261
rradius 106.913
rwrist -28.1394
rhand -40.8245 12.7217
rfingers 7.12502
rthumb -13.7625 343.197
lclavicle 2.34566e-014 -7.63333e-014
lhumerus 44.5949 -54.9688 16.4896
lradius 85.5975
lwrist 10.9394
lhand -17.7308 6.50337
lfingers 7.12502
lthumb 8.53018 -323.689
rfemur -403.852 -15.7815 391.245
rtibia 60.9656
rfoot -24.1382 -0.711775
rtoes 12.6896
lfemur -34.6 33.0221 -0.557592
ltibia 63.9743
lfoot -8.21005 -11.1122
ltoes -24.273
1593
root 20.9706 14.3747 7.83555 -170.305 5.89685 -179.2
lowerback 11.4032 -0.943166 -7.03117
upperback -5.52244 -2.4543 -6.89136
thorax -12.5633 -0.62159 -3.19157
lowerneck -15.3964 2.51527 6.62677
upperneck 24.5841 3.25338 -1.72374
head 10.5731 2.2801 -1.22045
rclavicle -1.2424e-014 -1.08139e-013
rhumerus 6.75867 23.6958 -2.59848
rradius 107.822
rwrist -27.547
rhand -40.5908 13.2669
rfingers 7.12502
rthumb -13.5372 343.727
lclavicle -1.2424e-014 -1.08139e-013
lhumerus 44.9292 -55.0837 13.8837
lradius 87.9543
lwrist 8.92043
lhand -18.9292 4.50351
lfingers 7.12502
lthumb 7.37352 -325.645
rfemur -404.297 -16.5331 391.554
rtibia 61.5127
rfoot -23.9601 -0.147057
rtoes 10.4929
lfemur -36.8182 34.2068 -2.01182
ltibia 67.1178
lfoot -8.37038 -11.6828
ltoes -23.216
1594
root 20.9626 14.3594 7.85309 -170.285 5.84639 -179.02
lowerback 11.7509 -0.721163 -6.6848
upperback -5.40099 -2.1623 -6.64824
thorax -12.6323 -0.525769 -3.16876
lowerneck -15.4943 2.51489 6.45678
upperneck 24.8867 3.37124 -1.8607
head 10.7066 2.31746 -1.22075
rclavicle 8.74653e-015 -8.90555e-014
rhumerus 6.18829 26.1907 -3.37024
rradius 108.583
rwrist -26.8586
rhand -40.4221 13.8926
rfingers 7.12502
rthumb -13.3747 344.342
lclavicle 8.74653e-015 -8.90555e-014
lhumerus 45.1536 -55.2052 11.4655
lradius 90.203
lwrist 7.31689
lhand -20.0706 2.68118
lfingers 7.12502
lthumb 6.27171 -327.432
rfemur -404.825 -17.2763 391.82
rtibia 62.2766
rfoot -23.8196 0.381076
rtoes 7.44905
lfemur -38.9403 35.2837 -3.49712
ltibia 70.0281
lfoot -8.54669 -12.196
ltoes -22.3424
1595
root 20.9533 14.3377 7.87103 -170.286 5.82725 -178.847
lowerback 12.1313 -0.48441 -6.34068
upperback -5.27504 -1.84919 -6.40493
thorax -12.7148 -0.419184 -3.15264
lowerneck -15.637 2.49946 6.26339
upperneck 25.2157 3.46637 -1.96742
head 10.8575 2.3455 -1.20865
rclavicle 1.90833e-014 -4.45278e-014
rhumerus 5.62667 28.7107 -4.13513
rradius 109.208
rwrist -26.1142
rhand -40.3181 14.6091
rfingers 7.12502
rthumb -13.2745 345.052
lclavicle 1.90833e-014 -4.45278e-014
lhumerus 45.3084 -55.3413 9.19958
lradius 92.3426
lwrist 6.1937
lhand -21.1676 1.00156
lfingers 7.12502
lthumb 5.21248 -329.083
rfemur -405.447 -17.9903 392.025
rtibia 63.2778
rfoot -23.7242 0.88011
rtoes 3.63332
lfemur -40.9672 36.2536 -5.00171
ltibia 72.696
lfoot -8.75483 -12.6983
ltoes -21.8182
